<mxfile host="app.diagrams.net" agent="Mozilla/5.0 (Windows NT 10.0; Win64; x64) AppleWebKit/537.36 (KHTML, like Gecko) Chrome/130.0.0.0 Safari/537.36" version="24.8.4">
  <diagram name="Side-1" id="zUv2YxPgjtFe0r4CQc8J">
    <mxGraphModel dx="1194" dy="742" grid="1" gridSize="10" guides="1" tooltips="1" connect="1" arrows="1" fold="1" page="1" pageScale="1" pageWidth="827" pageHeight="1169" math="0" shadow="0">
      <root>
        <mxCell id="0" />
        <mxCell id="1" parent="0" />
        <mxCell id="5CBngax2COawYz2shM24-1" value="Server" style="whiteSpace=wrap;html=1;aspect=fixed;" vertex="1" parent="1">
          <mxGeometry x="300" y="230" width="220" height="220" as="geometry" />
        </mxCell>
        <mxCell id="5CBngax2COawYz2shM24-2" value="" style="shape=mxgraph.cisco.people.androgenous_person;html=1;pointerEvents=1;dashed=0;fillColor=#036897;strokeColor=#ffffff;strokeWidth=2;verticalLabelPosition=bottom;verticalAlign=top;align=center;outlineConnect=0;" vertex="1" parent="1">
          <mxGeometry x="180" y="250" width="40" height="40" as="geometry" />
        </mxCell>
        <mxCell id="5CBngax2COawYz2shM24-3" value="" style="image;sketch=0;aspect=fixed;html=1;points=[];align=center;fontSize=12;image=img/lib/mscae/Person.svg;" vertex="1" parent="1">
          <mxGeometry x="180" y="340" width="29.6" height="40" as="geometry" />
        </mxCell>
        <mxCell id="5CBngax2COawYz2shM24-4" value="" style="image;aspect=fixed;html=1;points=[];align=center;fontSize=12;image=img/lib/azure2/networking/On_Premises_Data_Gateways.svg;" vertex="1" parent="1">
          <mxGeometry x="590" y="184.8" width="68" height="65.2" as="geometry" />
        </mxCell>
        <mxCell id="5CBngax2COawYz2shM24-5" value="" style="sketch=0;pointerEvents=1;shadow=0;dashed=0;html=1;strokeColor=none;fillColor=#505050;labelPosition=center;verticalLabelPosition=bottom;verticalAlign=top;outlineConnect=0;align=center;shape=mxgraph.office.devices.phone_voip;" vertex="1" parent="1">
          <mxGeometry x="601" y="440" width="57" height="51" as="geometry" />
        </mxCell>
        <mxCell id="5CBngax2COawYz2shM24-6" value="" style="html=1;verticalLabelPosition=bottom;align=center;labelBackgroundColor=#ffffff;verticalAlign=top;strokeWidth=2;strokeColor=#0080F0;shadow=0;dashed=0;shape=mxgraph.ios7.icons.wifi;pointerEvents=1" vertex="1" parent="1">
          <mxGeometry x="604.0699999999999" y="370" width="50.85" height="40" as="geometry" />
        </mxCell>
        <mxCell id="5CBngax2COawYz2shM24-9" value="" style="endArrow=none;html=1;rounded=0;entryX=0;entryY=0.5;entryDx=0;entryDy=0;exitX=1.014;exitY=0.75;exitDx=0;exitDy=0;exitPerimeter=0;" edge="1" parent="1" source="5CBngax2COawYz2shM24-3" target="5CBngax2COawYz2shM24-1">
          <mxGeometry width="50" height="50" relative="1" as="geometry">
            <mxPoint x="190" y="480" as="sourcePoint" />
            <mxPoint x="240" y="430" as="targetPoint" />
          </mxGeometry>
        </mxCell>
        <mxCell id="5CBngax2COawYz2shM24-10" value="" style="endArrow=none;html=1;rounded=0;entryX=-0.06;entryY=0.45;entryDx=0;entryDy=0;entryPerimeter=0;exitX=1;exitY=0.5;exitDx=0;exitDy=0;" edge="1" parent="1" source="5CBngax2COawYz2shM24-1" target="5CBngax2COawYz2shM24-6">
          <mxGeometry width="50" height="50" relative="1" as="geometry">
            <mxPoint x="270" y="370" as="sourcePoint" />
            <mxPoint x="310" y="350" as="targetPoint" />
          </mxGeometry>
        </mxCell>
        <mxCell id="5CBngax2COawYz2shM24-11" value="" style="endArrow=none;html=1;rounded=0;entryX=0;entryY=0.555;entryDx=0;entryDy=0;exitX=1;exitY=0.25;exitDx=0;exitDy=0;entryPerimeter=0;" edge="1" parent="1" source="5CBngax2COawYz2shM24-1" target="5CBngax2COawYz2shM24-4">
          <mxGeometry width="50" height="50" relative="1" as="geometry">
            <mxPoint x="230" y="390" as="sourcePoint" />
            <mxPoint x="320" y="360" as="targetPoint" />
          </mxGeometry>
        </mxCell>
        <mxCell id="5CBngax2COawYz2shM24-12" value="" style="endArrow=none;html=1;rounded=0;entryX=0;entryY=0.5;entryDx=0;entryDy=0;" edge="1" parent="1" source="5CBngax2COawYz2shM24-2" target="5CBngax2COawYz2shM24-1">
          <mxGeometry width="50" height="50" relative="1" as="geometry">
            <mxPoint x="240" y="400" as="sourcePoint" />
            <mxPoint x="330" y="370" as="targetPoint" />
          </mxGeometry>
        </mxCell>
        <mxCell id="5CBngax2COawYz2shM24-13" value="" style="endArrow=none;html=1;rounded=0;exitX=1;exitY=0.75;exitDx=0;exitDy=0;" edge="1" parent="1" source="5CBngax2COawYz2shM24-1">
          <mxGeometry width="50" height="50" relative="1" as="geometry">
            <mxPoint x="530" y="350" as="sourcePoint" />
            <mxPoint x="600" y="460" as="targetPoint" />
          </mxGeometry>
        </mxCell>
        <mxCell id="5CBngax2COawYz2shM24-14" value="" style="outlineConnect=0;dashed=0;verticalLabelPosition=bottom;verticalAlign=top;align=center;html=1;shape=mxgraph.aws3.checklist_security;fillColor=#759C3E;gradientColor=none;" vertex="1" parent="1">
          <mxGeometry x="604" y="270" width="54" height="69" as="geometry" />
        </mxCell>
        <mxCell id="5CBngax2COawYz2shM24-16" value="" style="endArrow=none;html=1;rounded=0;entryX=0;entryY=0.37;entryDx=0;entryDy=0;exitX=1.009;exitY=0.377;exitDx=0;exitDy=0;entryPerimeter=0;exitPerimeter=0;" edge="1" parent="1" source="5CBngax2COawYz2shM24-1" target="5CBngax2COawYz2shM24-14">
          <mxGeometry width="50" height="50" relative="1" as="geometry">
            <mxPoint x="530" y="295" as="sourcePoint" />
            <mxPoint x="600" y="231" as="targetPoint" />
          </mxGeometry>
        </mxCell>
      </root>
    </mxGraphModel>
  </diagram>
</mxfile>
